/* XPM */
static const char *accept_xpm[] = {
"16 16 4 1",
" 	c None",
".	c #000000",
"+	c #25AE88",
"@	c #FFFFFF",
"     ......     ",
"   ..++++++..   ",
"  .++++++++++.  ",
" .++++++++++++. ",
" .+++++++++.++. ",
".+++++++++.@.++.",
".++++++++.@.+++.",
".+++.+++.@.++++.",
".++.@.+.@.+++++.",
".+++.@.@.++++++.",
".++++.@.+++++++.",
" .++++.+++++++. ",
" .++++++++++++. ",
"  .++++++++++.  ",
"   ..++++++..   ",
"     ......     "};
