/* XPM */
static const char *cancel_xpm[] = {
"16 16 4 1",
" 	c None",
".	c #000000",
"+	c #D75A4A",
"@	c #FFFFFF",
"     ......     ",
"   ..++++++..   ",
"  .++++++++++.  ",
" .++++++++++++. ",
" .+++.++++.+++. ",
".+++.@.++.@.+++.",
".++++.@..@.++++.",
".+++++.@@.+++++.",
".+++++.@@.+++++.",
".++++.@..@.++++.",
".+++.@.++.@.+++.",
" .+++.++++.+++. ",
" .++++++++++++. ",
"  .++++++++++.  ",
"   ..++++++..   ",
"     ......     "};
