/* XPM */
static const char *no_xpm[] = {
"16 16 3 1",
" 	c None",
".	c #000000",
"+	c #FF3100",
"                ",
"   .        .   ",
"  .+.      .+.  ",
" .+++.    .+++. ",
"  .+++.  .+++.  ",
"   .+++..+++.   ",
"    .++++++.    ",
"     .++++.     ",
"     .++++.     ",
"    .++++++.    ",
"   .+++..+++.   ",
"  .+++.  .+++.  ",
" .+++.    .+++. ",
"  .+.      .+.  ",
"   .        .   ",
"                "};
